<svg xmlns="http://www.w3.org/2000/svg" width="411" height="410.999"><path d="M356.931 0H54.07c-4.333 0-7.848 3.521-7.848 7.857v395.277c0 4.354 3.519 7.865 7.848 7.865h302.859c4.334 0 7.848-3.521 7.848-7.865V7.857c.008-4.336-3.512-7.852-7.846-7.857zM84.499 390.463c-9.79 0-17.736-7.939-17.736-17.734 0-9.798 7.946-17.738 17.736-17.738 9.796 0 17.737 7.94 17.737 17.738-.001 9.792-7.942 17.734-17.737 17.734zm0-334.452c-9.79 0-17.736-7.937-17.736-17.736 0-9.796 7.941-17.737 17.736-17.737 9.796 0 17.737 7.941 17.737 17.737-.001 9.8-7.942 17.736-17.737 17.736zm188.278 328.333H137.873v-21.967h134.904v21.967zm27.838-83.74c-5.104 5.104-11.879 7.914-19.09 7.914-7.209 0-13.984-2.812-19.078-7.902-3.359-3.355-21.254-26.447-38.924-49.514-5.857 1.059-11.863 1.696-18.023 1.696-55.848 0-101.121-45.272-101.121-101.119 0-55.848 45.273-101.121 101.121-101.121 55.843 0 101.121 45.273 101.121 101.121 0 33.834-16.68 63.711-42.201 82.068 17.98 13.849 33.5 25.989 36.195 28.685 10.521 10.531 10.521 27.656 0 38.172zm25.885 89.859c-9.791 0-17.736-7.939-17.736-17.734 0-9.798 7.945-17.738 17.736-17.738 9.795 0 17.736 7.94 17.736 17.738 0 9.792-7.942 17.734-17.736 17.734zm0-334.452c-9.791 0-17.736-7.937-17.736-17.736 0-9.796 7.941-17.737 17.736-17.737s17.736 7.941 17.736 17.737c0 9.8-7.942 17.736-17.736 17.736z"/><path d="M199.894 199.894s65.459 86.345 71.23 92.11c5.768 5.764 15.113 5.764 20.879 0 5.764-5.768 5.764-15.111 0-20.885-5.765-5.758-92.109-71.225-92.109-71.225zM226.701 151.68c0-11.709-9.494-21.201-21.201-21.201-11.709 0-21.201 9.492-21.201 21.201s9.492 21.201 21.201 21.201c11.707-.002 21.201-9.492 21.201-21.201z"/></svg>