<svg xmlns="http://www.w3.org/2000/svg" width="67" height="67"><path d="M47.33 54H19.67c-3.927 0-5.965-2.426-5.965-5.898V20.44c0-3.513 2.147-7.44 5.965-7.44h27.66c3.816 0 7.375 3.928 7.375 7.44V48.1c0 3.474-3.448 5.9-7.375 5.9zM19.67 17c-1.298 0-1.965 1.769-1.965 3.44V48.1c0 1.652.968 1.899 1.965 1.899h27.66c.997 0 3.375-.247 3.375-1.899V20.44c0-1.672-2.077-3.44-3.375-3.44H19.67z"/><path d="M35 22h-1a1 1 0 1 1 0-2h1a1 1 0 1 1 0 2zM20.705 30a1 1 0 0 1-1-1v-2.325C19.705 23.394 19 20 24.562 20H30a1 1 0 1 1 0 2h-5.438c-3.563 0-2.857 1.178-2.857 4.675V29a1 1 0 0 1-1 1zM65 21h-5a2 2 0 0 1 0-4h5a2 2 0 0 1 0 4zM65 32h-5a2 2 0 0 1 0-4h5a2 2 0 0 1 0 4zM65 42h-5a2 2 0 0 1 0-4h5a2 2 0 0 1 0 4zM65 51h-5a2 2 0 0 1 0-4h5a2 2 0 0 1 0 4zM18.705 10a2 2 0 0 1-2-2V3a2 2 0 0 1 4 0v5a2 2 0 0 1-2 2zM28.705 10a2 2 0 0 1-2-2V3a2 2 0 0 1 4 0v5a2 2 0 0 1-2 2zM39.705 10a2 2 0 0 1-2-2V3a2 2 0 0 1 4 0v5a2 2 0 0 1-2 2zM48.705 10a2 2 0 0 1-2-2V3a2 2 0 0 1 4 0v5a2 2 0 0 1-2 2zM18.705 66a2 2 0 0 1-2-2v-5a2 2 0 0 1 4 0v5a2 2 0 0 1-2 2zM28.705 66a2 2 0 0 1-2-2v-5a2 2 0 0 1 4 0v5a2 2 0 0 1-2 2zM39.705 66a2 2 0 0 1-2-2v-5a2 2 0 0 1 4 0v5a2 2 0 0 1-2 2zM48.705 66a2 2 0 0 1-2-2v-5a2 2 0 0 1 4 0v5a2 2 0 0 1-2 2zM7 21H2a2 2 0 0 1 0-4h5a2 2 0 0 1 0 4zM7 32H2a2 2 0 0 1 0-4h5a2 2 0 0 1 0 4zM7 42H2a2 2 0 0 1 0-4h5a2 2 0 0 1 0 4zM7 51H2a2 2 0 0 1 0-4h5a2 2 0 0 1 0 4z"/></svg>